<svg xmlns="http://www.w3.org/2000/svg" width="370" height="473" viewBox="0 0 370 473" role="img" aria-label="Line art portrait">
  <rect width="100%" height="100%" fill="#0d1117" rx="12"/>
  <rect x="8" y="8" width="354" height="457" rx="10" fill="#1a1014" stroke="#6b2222" stroke-width="1.5"/>
  <circle cx="26" cy="28" r="5" fill="#ff5f56"/>
  <circle cx="42" cy="28" r="5" fill="#ffbd2e"/>
  <circle cx="58" cy="28" r="5" fill="#27c93f"/>
  <text x="76" y="32" fill="#c48a8a" font-size="12" font-family="ui-monospace, SFMono-Regular, Menlo, Monaco, Consolas, monospace">portrait · line art</text>

  <rect x="14" y="48" width="342" height="403.9666666666667" rx="4" fill="#0a0505" stroke="#6b2222" stroke-opacity="0.6"/>
  <g>
    <path d="M 152.00 115.99 L 129.47 121.62 L 122.23 131.28 L 116.60 124.84 L 111.77 136.91 L 105.33 134.50 L 107.74 140.94 L 90.04 148.99 L 83.60 195.66 L 86.82 235.90 L 106.13 260.85 L 44.97 269.70 L 16.00 293.84 L 45.78 270.50 L 106.94 262.46 L 102.11 247.97 L 88.43 237.51 L 84.40 212.56 L 90.04 157.84 L 97.28 144.16 L 104.52 140.94 L 104.52 144.96 L 131.08 122.43 L 148.79 118.40 L 164.08 120.82 L 147.18 124.04 L 160.05 125.65 L 157.64 132.09 L 164.08 120.82 L 175.34 119.21 L 196.27 132.09 L 216.39 134.50 L 206.73 136.11 L 233.29 146.57 L 243.75 168.30 L 243.75 181.98 L 232.48 191.64 L 234.09 210.95 L 220.41 202.10 L 207.53 214.17 L 189.83 194.86 L 193.05 186.81 L 189.02 196.47 L 203.51 214.17 L 213.97 214.98 L 222.02 203.71 L 233.29 214.17 L 232.48 220.61 L 216.39 216.59 L 213.97 222.22 L 222.82 224.63 L 200.29 241.53 L 227.65 223.83 L 216.39 220.61 L 231.68 222.22 L 234.09 277.75 L 226.04 290.62 L 213.97 296.26 L 236.50 329.25 L 250.99 336.50 L 269.50 367.08 L 275.13 432.26 L 269.50 390.41 L 275.94 449.16 L 276.74 441.92 L 281.57 449.16 L 269.50 363.86 L 251.80 334.89 L 214.78 295.45 L 227.65 291.43 L 234.90 278.55 L 229.26 227.05 L 234.09 221.41 L 233.29 193.25 L 244.55 183.59 L 243.75 165.08 L 227.65 136.91 L 222.82 135.30 L 232.48 147.38 L 216.39 132.89 L 152.81 115.99" fill="none" stroke="#a82a2a" stroke-width="1.05" stroke-linecap="round" stroke-linejoin="round" stroke-dasharray="1923" stroke-dashoffset="0" opacity="1"><animate attributeName="stroke-dashoffset" from="1923" to="0" begin="0.000s" dur="0.55s" fill="freeze"/><animate attributeName="opacity" from="0" to="1" begin="0.000s" dur="0.25s" fill="freeze"/></path><path d="M 95.67 272.11 L 86.01 274.53 L 96.48 280.16 L 112.57 301.09 L 94.87 276.94 L 109.35 282.58 L 106.94 286.60 L 114.18 293.84 L 119.01 311.55 L 77.97 278.55 L 61.07 275.33 L 38.53 283.38 L 56.24 278.55 L 109.35 313.16 L 57.04 277.75 L 97.28 299.48 L 120.62 321.20 L 80.38 302.70 L 115.79 321.20 L 110.16 322.01 L 110.96 326.84 L 67.50 309.13 L 106.94 325.23 L 113.38 334.08 L 75.55 317.99 L 30.49 313.96 L 74.75 318.79 L 117.40 338.10 L 119.81 332.47 L 134.30 351.79 L 96.48 330.06 L 63.48 321.20 L 130.28 355.81 L 144.76 371.90 L 157.64 397.66 L 135.10 383.17 L 158.44 399.27 L 120.62 317.99 L 63.48 276.94 L 91.65 289.01 L 122.23 316.38 L 115.79 296.26 L 164.88 400.07 L 135.10 326.84 L 114.99 292.23 L 126.25 301.09 L 127.86 297.06 L 96.48 272.11" fill="none" stroke="#a82a2a" stroke-width="1.05" stroke-linecap="round" stroke-linejoin="round" stroke-dasharray="1650" stroke-dashoffset="0" opacity="1"><animate attributeName="stroke-dashoffset" from="1650" to="0" begin="0.008s" dur="0.55s" fill="freeze"/><animate attributeName="opacity" from="0" to="1" begin="0.008s" dur="0.25s" fill="freeze"/></path><path d="M 110.16 246.36 L 107.74 253.60 L 127.86 270.50 L 142.35 291.43 L 125.45 271.31 L 109.35 258.43 L 110.16 263.26 L 133.50 289.01 L 114.18 275.33 L 137.52 298.67 L 133.50 290.62 L 135.91 291.43 L 152.00 317.18 L 154.42 313.96 L 151.20 305.11 L 158.44 321.20 L 161.66 320.40 L 156.83 309.13 L 165.69 325.23 L 172.12 328.45 L 183.39 383.17 L 184.20 407.31 L 180.17 428.24 L 171.32 411.34 L 171.32 421.00 L 180.17 429.85 L 167.30 427.43 L 133.50 437.90 L 132.69 441.11 L 154.42 444.33 L 162.47 434.68 L 171.32 432.26 L 181.78 434.68 L 191.44 447.55 L 197.07 449.16 L 180.98 431.46 L 185.00 389.61 L 172.93 326.84 L 166.49 323.62 L 152.00 297.06 L 182.59 306.72 L 183.39 318.79 L 201.10 338.10 L 206.73 354.20 L 209.14 350.18 L 200.29 334.08 L 184.20 317.18 L 185.00 306.72 L 152.00 294.65 L 151.20 301.09 L 132.69 269.70 L 109.35 248.78 L 114.18 247.97 L 122.23 254.41 L 121.42 252.00 L 110.96 246.36" fill="none" stroke="#a82a2a" stroke-width="1.05" stroke-linecap="round" stroke-linejoin="round" stroke-dasharray="1038" stroke-dashoffset="0" opacity="1"><animate attributeName="stroke-dashoffset" from="1038" to="0" begin="0.016s" dur="0.55s" fill="freeze"/><animate attributeName="opacity" from="0" to="1" begin="0.016s" dur="0.25s" fill="freeze"/></path><path d="M 19.22 346.15 L 23.24 349.37 L 29.68 350.98 L 44.17 352.59 L 47.39 354.20 L 51.41 353.40 L 56.24 355.81 L 86.01 362.25 L 102.91 370.30 L 114.99 373.51 L 119.01 375.93 L 134.30 392.83 L 144.76 399.27 L 153.61 402.49 L 164.08 409.73 L 165.69 412.14 L 164.88 412.95 L 157.64 408.92 L 151.20 407.31 L 143.15 402.49 L 135.91 402.49 L 129.47 400.07 L 113.38 401.68 L 121.42 402.49 L 128.67 400.88 L 135.10 403.29 L 142.35 403.29 L 151.20 408.92 L 154.42 408.92 L 164.08 413.75 L 166.49 413.75 L 168.90 411.34 L 168.90 409.73 L 167.30 410.53 L 155.22 401.68 L 146.37 398.46 L 135.91 392.02 L 127.06 383.17 L 126.25 380.76 L 116.60 372.71 L 106.13 370.30 L 86.82 361.44 L 57.04 355.00 L 52.21 352.59 L 48.19 353.40 L 44.97 351.79 L 30.49 350.18 L 20.02 346.15" fill="none" stroke="#a82a2a" stroke-width="1.05" stroke-linecap="round" stroke-linejoin="round" stroke-dasharray="450" stroke-dashoffset="0" opacity="1"><animate attributeName="stroke-dashoffset" from="450" to="0" begin="0.024s" dur="0.55s" fill="freeze"/><animate attributeName="opacity" from="0" to="1" begin="0.024s" dur="0.25s" fill="freeze"/></path><path d="M 218.80 347.76 L 224.43 356.61 L 228.46 369.49 L 228.46 379.95 L 230.07 387.20 L 230.87 403.29 L 233.29 410.53 L 234.90 422.60 L 234.90 430.65 L 235.70 431.46 L 234.90 440.31 L 242.14 446.75 L 241.33 449.16 L 243.75 447.55 L 244.55 448.36 L 250.99 447.55 L 254.21 448.36 L 253.40 446.75 L 245.36 447.55 L 244.55 445.14 L 242.94 445.94 L 238.92 441.11 L 238.92 436.29 L 237.31 435.48 L 235.70 429.85 L 235.70 421.80 L 234.09 409.73 L 231.68 402.49 L 231.68 394.44 L 232.48 393.63 L 234.09 396.05 L 235.70 409.73 L 239.72 421.00 L 238.11 428.24 L 238.92 431.46 L 239.72 431.46 L 240.53 420.19 L 238.11 415.36 L 234.90 400.88 L 235.70 392.83 L 236.50 392.02 L 245.36 403.29 L 246.16 403.29 L 246.16 401.68 L 243.75 397.66 L 238.11 392.02 L 235.70 385.59 L 233.29 383.98 L 232.48 384.78 L 234.90 386.39 L 234.09 388.00 L 236.50 391.22 L 233.29 392.02 L 231.68 394.44 L 230.87 393.63 L 229.26 368.69 L 222.82 350.18 L 219.60 347.76" fill="none" stroke="#a82a2a" stroke-width="1.05" stroke-linecap="round" stroke-linejoin="round" stroke-dasharray="377" stroke-dashoffset="0" opacity="1"><animate attributeName="stroke-dashoffset" from="377" to="0" begin="0.032s" dur="0.55s" fill="freeze"/><animate attributeName="opacity" from="0" to="1" begin="0.032s" dur="0.25s" fill="freeze"/></path><path d="M 129.47 180.37 L 124.64 181.98 L 120.62 186.00 L 119.81 197.27 L 120.62 198.08 L 120.62 202.10 L 123.03 207.73 L 132.69 218.20 L 138.32 220.61 L 142.35 220.61 L 146.37 216.59 L 144.76 214.98 L 143.96 210.95 L 134.30 204.51 L 134.30 200.49 L 130.28 200.49 L 128.67 198.88 L 131.89 196.47 L 138.32 194.86 L 137.52 192.44 L 134.30 191.64 L 131.89 187.61 L 128.67 187.61 L 127.06 190.03 L 126.25 187.61 L 128.67 185.20 L 134.30 185.20 L 143.96 194.86 L 146.37 194.86 L 146.37 193.25 L 144.76 193.25 L 139.93 187.61 L 141.54 186.00 L 144.76 187.61 L 152.00 195.66 L 152.81 198.08 L 152.00 200.49 L 153.61 203.71 L 152.81 211.76 L 151.20 214.17 L 151.20 218.20 L 149.59 223.02 L 144.76 228.66 L 144.76 229.46 L 146.37 229.46 L 150.40 224.63 L 152.00 219.80 L 152.00 215.78 L 153.61 213.37 L 153.61 207.73 L 154.42 206.93 L 153.61 195.66 L 145.57 186.00 L 143.15 186.00 L 140.74 183.59 L 135.91 181.18 L 130.28 180.37" fill="none" stroke="#a82a2a" stroke-width="1.05" stroke-linecap="round" stroke-linejoin="round" stroke-dasharray="278" stroke-dashoffset="0" opacity="1"><animate attributeName="stroke-dashoffset" from="278" to="0" begin="0.040s" dur="0.55s" fill="freeze"/><animate attributeName="opacity" from="0" to="1" begin="0.040s" dur="0.25s" fill="freeze"/></path><path d="M 122.23 416.97 L 118.20 421.00 L 120.62 421.00 L 122.23 418.58 L 124.64 421.00 L 123.84 424.21 L 119.01 425.02 L 116.60 422.60 L 109.35 422.60 L 109.35 423.41 L 115.79 423.41 L 118.20 425.82 L 123.03 425.82 L 123.84 425.02 L 135.10 425.82 L 139.13 425.02 L 144.76 426.63 L 149.59 426.63 L 151.20 428.24 L 148.79 429.85 L 135.10 429.85 L 134.30 430.65 L 132.69 429.85 L 128.67 431.46 L 127.06 430.65 L 115.79 430.65 L 114.99 429.85 L 101.30 430.65 L 92.45 427.43 L 89.23 428.24 L 87.62 426.63 L 79.58 427.43 L 79.58 428.24 L 86.82 427.43 L 88.43 429.04 L 91.65 428.24 L 100.50 431.46 L 109.35 431.46 L 110.16 432.26 L 111.77 430.65 L 129.47 432.26 L 135.91 430.65 L 149.59 430.65 L 154.42 429.04 L 154.42 427.43 L 150.40 425.82 L 145.57 425.82 L 139.93 424.21 L 127.86 425.02 L 125.45 422.60 L 125.45 420.19 L 123.03 416.97" fill="none" stroke="#a82a2a" stroke-width="1.05" stroke-linecap="round" stroke-linejoin="round" stroke-dasharray="270" stroke-dashoffset="0" opacity="1"><animate attributeName="stroke-dashoffset" from="270" to="0" begin="0.048s" dur="0.55s" fill="freeze"/><animate attributeName="opacity" from="0" to="1" begin="0.048s" dur="0.25s" fill="freeze"/></path><path d="M 193.05 320.40 L 195.46 323.62 L 210.75 334.89 L 217.19 342.13 L 237.31 359.83 L 246.97 366.27 L 250.19 366.27 L 254.21 368.69 L 259.84 375.12 L 255.82 375.93 L 255.82 378.34 L 252.60 386.39 L 253.40 408.12 L 255.01 409.73 L 254.21 398.46 L 253.40 397.66 L 253.40 387.20 L 257.43 377.54 L 260.65 375.93 L 260.65 373.51 L 253.40 366.27 L 248.58 365.47 L 243.75 363.05 L 218.80 341.32 L 212.36 334.08 L 193.85 320.40" fill="none" stroke="#a82a2a" stroke-width="1.05" stroke-linecap="round" stroke-linejoin="round" stroke-dasharray="252" stroke-dashoffset="0" opacity="1"><animate attributeName="stroke-dashoffset" from="252" to="0" begin="0.056s" dur="0.55s" fill="freeze"/><animate attributeName="opacity" from="0" to="1" begin="0.056s" dur="0.25s" fill="freeze"/></path><path d="M 28.88 316.38 L 28.07 318.79 L 32.10 317.99 L 40.14 320.40 L 51.41 322.01 L 57.85 325.23 L 73.94 330.06 L 81.19 334.08 L 80.38 334.89 L 75.55 334.89 L 71.53 333.28 L 66.70 333.28 L 56.24 329.25 L 48.19 329.25 L 44.17 326.84 L 42.56 327.64 L 37.73 327.64 L 36.92 326.84 L 31.29 327.64 L 28.88 326.03 L 26.46 326.03 L 26.46 326.84 L 30.49 328.45 L 44.17 328.45 L 47.39 330.06 L 55.43 330.06 L 62.68 333.28 L 70.72 334.08 L 81.19 336.50 L 81.99 334.08 L 83.60 335.69 L 90.04 338.10 L 88.43 335.69 L 69.11 326.84 L 58.65 324.42 L 55.43 322.01 L 49.00 321.20 L 44.97 319.60 L 40.95 319.60 L 37.73 317.99 L 33.70 317.99 L 29.68 316.38" fill="none" stroke="#a82a2a" stroke-width="1.05" stroke-linecap="round" stroke-linejoin="round" stroke-dasharray="251" stroke-dashoffset="0" opacity="1"><animate attributeName="stroke-dashoffset" from="251" to="0" begin="0.064s" dur="0.55s" fill="freeze"/><animate attributeName="opacity" from="0" to="1" begin="0.064s" dur="0.25s" fill="freeze"/></path><path d="M 27.27 338.10 L 26.46 339.71 L 31.29 342.13 L 35.31 342.13 L 36.12 341.32 L 40.14 343.74 L 44.17 343.74 L 51.41 346.15 L 56.24 346.15 L 62.68 349.37 L 69.92 349.37 L 73.94 351.79 L 78.77 351.79 L 81.99 354.20 L 91.65 356.61 L 95.67 359.03 L 98.09 359.03 L 99.70 360.64 L 103.72 361.44 L 110.16 364.66 L 114.99 369.49 L 130.28 375.12 L 133.50 378.34 L 133.50 379.95 L 135.91 379.15 L 131.89 374.32 L 126.25 371.90 L 121.42 371.10 L 116.60 368.69 L 111.77 363.86 L 94.87 356.61 L 85.21 354.20 L 79.58 350.98 L 74.75 350.98 L 73.14 349.37 L 67.50 348.57 L 65.09 346.15 L 64.29 346.15 L 63.48 348.57 L 56.24 344.54 L 52.21 345.35 L 44.97 342.93 L 40.95 342.93 L 38.53 340.52 L 32.10 341.32 L 28.07 338.10" fill="none" stroke="#a82a2a" stroke-width="1.05" stroke-linecap="round" stroke-linejoin="round" stroke-dasharray="247" stroke-dashoffset="0" opacity="1"><animate attributeName="stroke-dashoffset" from="247" to="0" begin="0.072s" dur="0.55s" fill="freeze"/><animate attributeName="opacity" from="0" to="1" begin="0.072s" dur="0.25s" fill="freeze"/></path><path d="M 17.61 366.27 L 18.41 367.88 L 28.88 373.51 L 57.85 383.98 L 94.87 392.02 L 99.70 392.02 L 110.16 394.44 L 115.79 394.44 L 119.81 396.05 L 124.64 396.05 L 129.47 397.66 L 134.30 397.66 L 134.30 396.85 L 120.62 395.24 L 116.60 393.63 L 110.96 393.63 L 110.16 392.83 L 86.82 389.61 L 58.65 383.17 L 40.14 376.73 L 36.12 374.32 L 29.68 372.71 L 18.41 366.27" fill="none" stroke="#a82a2a" stroke-width="1.05" stroke-linecap="round" stroke-linejoin="round" stroke-dasharray="244" stroke-dashoffset="0" opacity="1"><animate attributeName="stroke-dashoffset" from="244" to="0" begin="0.080s" dur="0.55s" fill="freeze"/><animate attributeName="opacity" from="0" to="1" begin="0.080s" dur="0.25s" fill="freeze"/></path><path d="M 16.00 371.10 L 16.00 371.90 L 17.61 371.90 L 27.27 378.34 L 51.41 386.39 L 57.85 387.20 L 65.09 389.61 L 69.11 389.61 L 74.75 392.02 L 78.77 392.02 L 95.67 396.05 L 101.30 396.05 L 105.33 397.66 L 110.16 397.66 L 114.99 399.27 L 114.18 397.66 L 96.48 395.24 L 52.21 385.59 L 44.97 382.37 L 39.34 381.56 L 32.90 378.34 L 28.88 377.54 L 21.63 372.71 L 16.80 371.10" fill="none" stroke="#a82a2a" stroke-width="1.05" stroke-linecap="round" stroke-linejoin="round" stroke-dasharray="208" stroke-dashoffset="0" opacity="1"><animate attributeName="stroke-dashoffset" from="208" to="0" begin="0.088s" dur="0.55s" fill="freeze"/><animate attributeName="opacity" from="0" to="1" begin="0.088s" dur="0.25s" fill="freeze"/></path><path d="M 54.63 338.91 L 55.43 340.52 L 60.26 340.52 L 69.11 343.74 L 77.16 344.54 L 86.01 346.96 L 92.45 350.98 L 95.67 351.79 L 123.03 366.27 L 124.64 366.27 L 143.96 380.76 L 146.37 381.56 L 146.37 379.95 L 126.25 365.47 L 114.18 360.64 L 110.16 357.42 L 105.33 355.81 L 89.23 346.96 L 77.97 343.74 L 69.92 342.93 L 59.46 338.91 L 56.24 339.71 L 55.43 338.91" fill="none" stroke="#a82a2a" stroke-width="1.05" stroke-linecap="round" stroke-linejoin="round" stroke-dasharray="206" stroke-dashoffset="0" opacity="1"><animate attributeName="stroke-dashoffset" from="206" to="0" begin="0.096s" dur="0.55s" fill="freeze"/><animate attributeName="opacity" from="0" to="1" begin="0.096s" dur="0.25s" fill="freeze"/></path><path d="M 24.05 364.66 L 26.46 367.08 L 32.90 367.88 L 46.58 373.51 L 51.41 373.51 L 63.48 377.54 L 76.36 379.15 L 81.19 382.37 L 90.04 383.17 L 91.65 384.78 L 91.65 386.39 L 94.06 388.00 L 95.67 388.00 L 95.67 387.20 L 92.45 384.78 L 93.26 383.98 L 97.28 383.98 L 102.91 385.59 L 112.57 391.22 L 114.99 391.22 L 110.16 387.20 L 99.70 383.17 L 86.01 382.37 L 77.16 378.34 L 72.33 378.34 L 69.11 376.73 L 64.29 376.73 L 61.07 375.12 L 57.85 375.12 L 52.21 372.71 L 47.39 372.71 L 34.51 367.08 L 29.68 367.08 L 24.85 364.66" fill="none" stroke="#a82a2a" stroke-width="1.05" stroke-linecap="round" stroke-linejoin="round" stroke-dasharray="203" stroke-dashoffset="0" opacity="1"><animate attributeName="stroke-dashoffset" from="203" to="0" begin="0.104s" dur="0.55s" fill="freeze"/><animate attributeName="opacity" from="0" to="1" begin="0.104s" dur="0.25s" fill="freeze"/></path><path d="M 22.44 359.83 L 22.44 360.64 L 29.68 363.05 L 34.51 363.05 L 40.95 365.47 L 49.00 366.27 L 59.46 371.10 L 70.72 371.90 L 77.16 374.32 L 94.06 375.12 L 101.30 381.56 L 114.99 386.39 L 113.38 384.78 L 101.30 379.95 L 94.87 374.32 L 77.97 373.51 L 71.53 371.10 L 60.26 370.30 L 49.80 365.47 L 41.75 364.66 L 38.53 363.05 L 30.49 362.25 L 23.24 359.83" fill="none" stroke="#a82a2a" stroke-width="1.05" stroke-linecap="round" stroke-linejoin="round" stroke-dasharray="196" stroke-dashoffset="0" opacity="1"><animate attributeName="stroke-dashoffset" from="196" to="0" begin="0.112s" dur="0.55s" fill="freeze"/><animate attributeName="opacity" from="0" to="1" begin="0.112s" dur="0.25s" fill="freeze"/></path><path d="M 17.61 351.79 L 18.41 353.40 L 30.49 356.61 L 45.78 359.03 L 49.80 360.64 L 55.43 360.64 L 59.46 362.25 L 67.50 363.05 L 81.99 367.88 L 89.23 368.69 L 110.96 376.73 L 110.96 375.12 L 90.04 367.88 L 86.01 367.88 L 68.31 362.25 L 60.26 361.44 L 53.82 359.03 L 50.60 359.83 L 46.58 358.22 L 31.29 355.81 L 18.41 351.79" fill="none" stroke="#a82a2a" stroke-width="1.05" stroke-linecap="round" stroke-linejoin="round" stroke-dasharray="195" stroke-dashoffset="0" opacity="1"><animate attributeName="stroke-dashoffset" from="195" to="0" begin="0.120s" dur="0.55s" fill="freeze"/><animate attributeName="opacity" from="0" to="1" begin="0.120s" dur="0.25s" fill="freeze"/></path><path d="M 217.19 173.93 L 218.00 177.96 L 221.21 181.18 L 223.63 186.00 L 222.82 190.03 L 221.21 186.00 L 216.39 181.18 L 209.95 177.96 L 205.12 179.57 L 205.92 181.98 L 202.70 182.79 L 201.10 181.18 L 200.29 177.15 L 197.88 176.35 L 189.83 177.96 L 180.98 177.15 L 180.17 176.35 L 178.56 176.35 L 178.56 177.15 L 184.20 178.76 L 198.68 177.96 L 199.49 181.98 L 202.70 184.40 L 201.90 185.20 L 200.29 184.40 L 197.88 185.20 L 191.44 184.40 L 191.44 185.20 L 195.46 186.00 L 199.49 185.20 L 203.51 186.00 L 209.95 179.57 L 214.78 181.98 L 220.41 187.61 L 222.02 193.25 L 224.43 193.25 L 225.24 187.61 L 222.02 179.57 L 218.80 176.35 L 218.00 173.93" fill="none" stroke="#a82a2a" stroke-width="1.05" stroke-linecap="round" stroke-linejoin="round" stroke-dasharray="182" stroke-dashoffset="0" opacity="1"><animate attributeName="stroke-dashoffset" from="182" to="0" begin="0.128s" dur="0.55s" fill="freeze"/><animate attributeName="opacity" from="0" to="1" begin="0.128s" dur="0.25s" fill="freeze"/></path><path d="M 26.46 330.06 L 26.46 331.67 L 34.51 334.08 L 38.53 333.28 L 49.00 335.69 L 57.04 335.69 L 73.14 339.71 L 87.62 341.32 L 96.48 346.96 L 98.89 346.96 L 98.89 346.15 L 89.23 340.52 L 73.94 338.91 L 57.85 334.89 L 49.80 334.89 L 39.34 332.47 L 33.70 332.47 L 29.68 331.67 L 27.27 330.06" fill="none" stroke="#a82a2a" stroke-width="1.05" stroke-linecap="round" stroke-linejoin="round" stroke-dasharray="152" stroke-dashoffset="0" opacity="1"><animate attributeName="stroke-dashoffset" from="152" to="0" begin="0.136s" dur="0.55s" fill="freeze"/><animate attributeName="opacity" from="0" to="1" begin="0.136s" dur="0.25s" fill="freeze"/></path><path d="M 70.72 323.62 L 73.14 322.81 L 91.65 329.25 L 114.18 341.32 L 116.60 341.32 L 117.40 342.93 L 131.08 350.98 L 134.30 354.20 L 134.30 355.81 L 133.50 356.61 L 118.20 346.96 L 102.11 339.71 L 80.38 327.64 L 71.53 324.42" fill="none" stroke="#ff6b6b" stroke-width="1.35" stroke-linecap="round" stroke-linejoin="round" stroke-dasharray="145" stroke-dashoffset="0" opacity="1"><animate attributeName="stroke-dashoffset" from="145" to="0" begin="0.144s" dur="0.55s" fill="freeze"/><animate attributeName="opacity" from="0" to="1" begin="0.144s" dur="0.25s" fill="freeze"/></path><path d="M 92.45 339.71 L 92.45 340.52 L 94.06 340.52 L 97.28 342.93 L 110.16 348.57 L 111.77 350.18 L 110.16 350.98 L 111.77 353.40 L 114.18 355.00 L 121.42 356.61 L 135.10 369.49 L 143.96 375.93 L 143.96 374.32 L 139.93 370.30 L 136.71 368.69 L 123.03 355.81 L 118.20 355.00 L 117.40 354.20 L 119.01 352.59 L 117.40 350.98 L 103.72 343.74 L 99.70 342.93 L 96.48 340.52 L 93.26 339.71" fill="none" stroke="#ff6b6b" stroke-width="1.35" stroke-linecap="round" stroke-linejoin="round" stroke-dasharray="134" stroke-dashoffset="0" opacity="1"><animate attributeName="stroke-dashoffset" from="134" to="0" begin="0.152s" dur="0.55s" fill="freeze"/><animate attributeName="opacity" from="0" to="1" begin="0.152s" dur="0.25s" fill="freeze"/></path><path d="M 143.96 335.69 L 151.20 345.35 L 153.61 353.40 L 156.83 357.42 L 156.83 359.83 L 159.25 363.86 L 160.86 372.71 L 163.27 379.15 L 164.08 391.22 L 164.88 392.02 L 164.08 393.63 L 164.88 396.85 L 165.69 396.85 L 164.08 378.34 L 161.66 371.90 L 160.05 362.25 L 153.61 350.18 L 152.00 343.74 L 149.59 339.71 L 144.76 335.69" fill="none" stroke="#ff6b6b" stroke-width="1.35" stroke-linecap="round" stroke-linejoin="round" stroke-dasharray="134" stroke-dashoffset="0" opacity="1"><animate attributeName="stroke-dashoffset" from="134" to="0" begin="0.160s" dur="0.55s" fill="freeze"/><animate attributeName="opacity" from="0" to="1" begin="0.160s" dur="0.25s" fill="freeze"/></path><path d="M 128.67 221.41 L 132.69 225.44 L 134.30 225.44 L 135.91 227.05 L 138.32 227.05 L 139.13 229.46 L 143.15 234.29 L 143.15 243.95 L 141.54 246.36 L 140.74 251.19 L 144.76 255.21 L 143.96 260.85 L 146.37 264.07 L 147.98 264.07 L 145.57 260.04 L 146.37 255.21 L 141.54 250.39 L 142.35 247.97 L 143.96 247.17 L 143.15 245.56 L 143.96 244.75 L 143.96 233.49 L 139.13 226.24 L 136.71 226.24 L 134.30 223.83 L 129.47 221.41" fill="none" stroke="#ff6b6b" stroke-width="1.35" stroke-linecap="round" stroke-linejoin="round" stroke-dasharray="110" stroke-dashoffset="0" opacity="1"><animate attributeName="stroke-dashoffset" from="110" to="0" begin="0.168s" dur="0.55s" fill="freeze"/><animate attributeName="opacity" from="0" to="1" begin="0.168s" dur="0.25s" fill="freeze"/></path><path d="M 129.47 181.98 L 131.89 181.18 L 138.32 184.40 L 137.52 185.20 L 127.06 184.40 L 123.84 187.61 L 127.06 190.03 L 126.25 195.66 L 127.06 195.66 L 127.06 193.25 L 130.28 188.42 L 132.69 192.44 L 134.30 193.25 L 133.50 194.86 L 127.86 197.27 L 127.86 199.69 L 129.47 201.30 L 127.86 202.10 L 127.86 206.12 L 126.25 209.34 L 121.42 201.30 L 120.62 189.22 L 126.25 182.79 L 128.67 181.98" fill="none" stroke="#ff6b6b" stroke-width="1.35" stroke-linecap="round" stroke-linejoin="round" stroke-dasharray="105" stroke-dashoffset="0" opacity="1"><animate attributeName="stroke-dashoffset" from="105" to="0" begin="0.176s" dur="0.55s" fill="freeze"/><animate attributeName="opacity" from="0" to="1" begin="0.176s" dur="0.25s" fill="freeze"/></path><path d="M 116.60 437.90 L 114.99 439.50 L 119.01 438.70 L 124.64 441.92 L 127.86 439.50 L 128.67 441.92 L 127.06 443.53 L 129.47 443.53 L 131.08 445.14 L 136.71 446.75 L 139.93 446.75 L 143.96 448.36 L 156.03 448.36 L 156.83 449.16 L 160.05 448.36 L 160.05 447.55 L 144.76 447.55 L 140.74 445.94 L 137.52 445.94 L 132.69 444.33 L 130.28 441.92 L 128.67 437.90 L 126.25 438.70 L 125.45 440.31 L 119.81 437.90 L 117.40 437.90" fill="none" stroke="#ff6b6b" stroke-width="1.35" stroke-linecap="round" stroke-linejoin="round" stroke-dasharray="105" stroke-dashoffset="0" opacity="1"><animate attributeName="stroke-dashoffset" from="105" to="0" begin="0.184s" dur="0.55s" fill="freeze"/><animate attributeName="opacity" from="0" to="1" begin="0.184s" dur="0.25s" fill="freeze"/></path><path d="M 167.30 429.04 L 168.10 428.24 L 173.73 429.04 L 178.56 431.46 L 180.98 433.87 L 178.56 434.68 L 172.12 431.46 L 164.08 432.26 L 157.64 437.09 L 156.83 441.11 L 153.61 443.53 L 144.76 443.53 L 134.30 440.31 L 136.71 437.90 L 139.93 437.90 L 150.40 433.87 L 155.22 433.87 L 156.83 432.26 L 166.49 429.04" fill="none" stroke="#ff6b6b" stroke-width="1.35" stroke-linecap="round" stroke-linejoin="round" stroke-dasharray="104" stroke-dashoffset="0" opacity="1"><animate attributeName="stroke-dashoffset" from="104" to="0" begin="0.192s" dur="0.55s" fill="freeze"/><animate attributeName="opacity" from="0" to="1" begin="0.192s" dur="0.25s" fill="freeze"/></path><path d="M 42.56 284.99 L 44.17 286.60 L 53.82 287.40 L 56.24 289.01 L 66.70 292.23 L 75.55 297.87 L 85.21 300.28 L 88.43 303.50 L 87.62 300.28 L 78.77 297.06 L 76.36 297.06 L 67.50 291.43 L 63.48 290.62 L 54.63 286.60 L 43.36 284.99" fill="none" stroke="#ff6b6b" stroke-width="1.35" stroke-linecap="round" stroke-linejoin="round" stroke-dasharray="101" stroke-dashoffset="0" opacity="1"><animate attributeName="stroke-dashoffset" from="101" to="0" begin="0.200s" dur="0.55s" fill="freeze"/><animate attributeName="opacity" from="0" to="1" begin="0.200s" dur="0.25s" fill="freeze"/></path><path d="M 205.12 337.30 L 211.56 345.35 L 215.58 353.40 L 221.21 371.90 L 223.63 376.73 L 223.63 379.15 L 225.24 379.15 L 215.58 350.18 L 212.36 343.74 L 205.92 337.30" fill="none" stroke="#ff6b6b" stroke-width="1.35" stroke-linecap="round" stroke-linejoin="round" stroke-dasharray="94" stroke-dashoffset="0" opacity="1"><animate attributeName="stroke-dashoffset" from="94" to="0" begin="0.208s" dur="0.55s" fill="freeze"/><animate attributeName="opacity" from="0" to="1" begin="0.208s" dur="0.25s" fill="freeze"/></path><path d="M 168.90 186.81 L 166.49 187.61 L 164.88 191.64 L 165.69 195.66 L 164.88 196.47 L 164.88 200.49 L 167.30 203.71 L 168.90 210.95 L 175.34 214.17 L 177.76 217.39 L 176.95 218.20 L 176.95 222.22 L 177.76 222.22 L 178.56 218.20 L 177.76 214.98 L 174.54 211.76 L 172.12 211.76 L 169.71 209.34 L 168.10 202.90 L 165.69 199.69 L 166.49 196.47 L 165.69 192.44 L 166.49 190.03 L 170.51 187.61 L 169.71 186.81" fill="none" stroke="#ff6b6b" stroke-width="1.35" stroke-linecap="round" stroke-linejoin="round" stroke-dasharray="89" stroke-dashoffset="0" opacity="1"><animate attributeName="stroke-dashoffset" from="89" to="0" begin="0.216s" dur="0.55s" fill="freeze"/><animate attributeName="opacity" from="0" to="1" begin="0.216s" dur="0.25s" fill="freeze"/></path><path d="M 131.89 205.32 L 132.69 204.51 L 133.50 206.12 L 135.91 206.93 L 138.32 209.34 L 136.71 210.15 L 135.10 208.54 L 132.69 209.34 L 130.28 208.54 L 130.28 210.15 L 133.50 213.37 L 140.74 215.78 L 138.32 213.37 L 135.10 212.56 L 139.13 210.15 L 143.15 212.56 L 144.76 216.59 L 141.54 219.80 L 139.13 219.80 L 134.30 217.39 L 126.25 209.34 L 131.89 206.12" fill="none" stroke="#ff6b6b" stroke-width="1.35" stroke-linecap="round" stroke-linejoin="round" stroke-dasharray="82" stroke-dashoffset="0" opacity="1"><animate attributeName="stroke-dashoffset" from="82" to="0" begin="0.224s" dur="0.55s" fill="freeze"/><animate attributeName="opacity" from="0" to="1" begin="0.224s" dur="0.25s" fill="freeze"/></path><path d="M 217.19 238.31 L 213.97 240.73 L 211.56 240.73 L 210.75 242.34 L 210.75 245.56 L 216.39 253.60 L 218.00 253.60 L 218.00 252.80 L 213.17 247.97 L 211.56 244.75 L 211.56 243.14 L 213.17 241.53 L 216.39 240.73 L 217.19 242.34 L 220.41 243.14 L 223.63 246.36 L 225.24 245.56 L 226.85 246.36 L 226.85 242.34 L 224.43 239.92 L 218.00 238.31" fill="none" stroke="#ff6b6b" stroke-width="1.35" stroke-linecap="round" stroke-linejoin="round" stroke-dasharray="68" stroke-dashoffset="0" opacity="1"><animate attributeName="stroke-dashoffset" from="68" to="0" begin="0.232s" dur="0.55s" fill="freeze"/><animate attributeName="opacity" from="0" to="1" begin="0.232s" dur="0.25s" fill="freeze"/></path><path d="M 143.96 197.27 L 141.54 201.30 L 142.35 205.32 L 147.98 210.95 L 146.37 212.56 L 149.59 213.37 L 149.59 210.15 L 143.96 205.32 L 142.35 202.10 L 144.76 198.88 L 146.37 200.49 L 147.18 203.71 L 146.37 205.32 L 147.98 204.51 L 147.18 202.10 L 149.59 201.30 L 149.59 200.49 L 144.76 197.27" fill="none" stroke="#ff6b6b" stroke-width="1.35" stroke-linecap="round" stroke-linejoin="round" stroke-dasharray="61" stroke-dashoffset="0" opacity="1"><animate attributeName="stroke-dashoffset" from="61" to="0" begin="0.240s" dur="0.55s" fill="freeze"/><animate attributeName="opacity" from="0" to="1" begin="0.240s" dur="0.25s" fill="freeze"/></path><path d="M 185.00 128.06 L 178.56 132.89 L 176.95 132.89 L 175.34 131.28 L 172.12 131.28 L 164.08 135.30 L 161.66 135.30 L 159.25 137.72 L 165.69 136.11 L 172.93 132.09 L 174.54 132.09 L 177.76 134.50 L 181.78 132.89 L 185.80 128.06" fill="none" stroke="#ff6b6b" stroke-width="1.35" stroke-linecap="round" stroke-linejoin="round" stroke-dasharray="61" stroke-dashoffset="0" opacity="1"><animate attributeName="stroke-dashoffset" from="61" to="0" begin="0.248s" dur="0.55s" fill="freeze"/><animate attributeName="opacity" from="0" to="1" begin="0.248s" dur="0.25s" fill="freeze"/></path><path d="M 55.43 304.30 L 53.02 305.91 L 53.02 308.33 L 56.24 305.11 L 57.04 305.91 L 65.90 305.91 L 66.70 305.11 L 67.50 305.91 L 73.14 305.91 L 79.58 309.13 L 78.77 306.72 L 74.75 305.11 L 68.31 305.11 L 67.50 304.30 L 57.85 305.11 L 56.24 304.30" fill="none" stroke="#ff6b6b" stroke-width="1.35" stroke-linecap="round" stroke-linejoin="round" stroke-dasharray="60" stroke-dashoffset="0" opacity="1"><animate attributeName="stroke-dashoffset" from="60" to="0" begin="0.256s" dur="0.55s" fill="freeze"/><animate attributeName="opacity" from="0" to="1" begin="0.256s" dur="0.25s" fill="freeze"/></path><path d="M 133.50 130.48 L 130.28 131.28 L 130.28 132.09 L 136.71 131.28 L 137.52 132.89 L 145.57 133.70 L 154.42 136.91 L 153.61 134.50 L 141.54 132.89 L 139.93 131.28 L 134.30 130.48" fill="none" stroke="#ff6b6b" stroke-width="1.35" stroke-linecap="round" stroke-linejoin="round" stroke-dasharray="52" stroke-dashoffset="0" opacity="1"><animate attributeName="stroke-dashoffset" from="52" to="0" begin="0.264s" dur="0.55s" fill="freeze"/><animate attributeName="opacity" from="0" to="1" begin="0.264s" dur="0.25s" fill="freeze"/></path><path d="M 220.41 304.30 L 221.21 303.50 L 231.68 313.96 L 235.70 319.60 L 232.48 320.40 L 224.43 309.13 L 220.41 305.11" fill="none" stroke="#ff6b6b" stroke-width="1.35" stroke-linecap="round" stroke-linejoin="round" stroke-dasharray="45" stroke-dashoffset="0" opacity="1"><animate attributeName="stroke-dashoffset" from="45" to="0" begin="0.272s" dur="0.55s" fill="freeze"/><animate attributeName="opacity" from="0" to="1" begin="0.272s" dur="0.25s" fill="freeze"/></path><path d="M 172.12 176.35 L 164.88 177.96 L 160.05 180.37 L 159.25 181.98 L 168.90 177.96 L 173.73 178.76 L 175.34 176.35 L 172.93 176.35" fill="none" stroke="#ff6b6b" stroke-width="1.35" stroke-linecap="round" stroke-linejoin="round" stroke-dasharray="40" stroke-dashoffset="0" opacity="1"><animate attributeName="stroke-dashoffset" from="40" to="0" begin="0.280s" dur="0.55s" fill="freeze"/><animate attributeName="opacity" from="0" to="1" begin="0.280s" dur="0.25s" fill="freeze"/></path><path d="M 115.79 322.81 L 117.40 322.01 L 119.81 323.62 L 128.67 333.28 L 127.86 334.08 L 116.60 323.62" fill="none" stroke="#ff6b6b" stroke-width="1.35" stroke-linecap="round" stroke-linejoin="round" stroke-dasharray="40" stroke-dashoffset="0" opacity="1"><animate attributeName="stroke-dashoffset" from="40" to="0" begin="0.288s" dur="0.55s" fill="freeze"/><animate attributeName="opacity" from="0" to="1" begin="0.288s" dur="0.25s" fill="freeze"/></path><path d="M 141.54 383.17 L 149.59 391.22 L 152.81 392.02 L 148.79 387.20 L 142.35 383.17" fill="none" stroke="#ff6b6b" stroke-width="1.35" stroke-linecap="round" stroke-linejoin="round" stroke-dasharray="40" stroke-dashoffset="0" opacity="1"><animate attributeName="stroke-dashoffset" from="40" to="0" begin="0.296s" dur="0.55s" fill="freeze"/><animate attributeName="opacity" from="0" to="1" begin="0.296s" dur="0.25s" fill="freeze"/></path><path d="M 187.41 128.87 L 188.22 130.48 L 188.22 137.72 L 185.80 140.13 L 187.41 140.13 L 189.83 137.72 L 189.02 129.67 L 188.22 128.87" fill="none" stroke="#ff6b6b" stroke-width="1.35" stroke-linecap="round" stroke-linejoin="round" stroke-dasharray="40" stroke-dashoffset="0" opacity="1"><animate attributeName="stroke-dashoffset" from="40" to="0" begin="0.304s" dur="0.55s" fill="freeze"/><animate attributeName="opacity" from="0" to="1" begin="0.304s" dur="0.25s" fill="freeze"/></path><path d="M 183.39 216.59 L 187.41 223.02 L 187.41 227.05 L 189.83 225.44 L 187.41 219.80 L 184.20 216.59" fill="none" stroke="#ff6b6b" stroke-width="1.35" stroke-linecap="round" stroke-linejoin="round" stroke-dasharray="40" stroke-dashoffset="0" opacity="1"><animate attributeName="stroke-dashoffset" from="40" to="0" begin="0.312s" dur="0.55s" fill="freeze"/><animate attributeName="opacity" from="0" to="1" begin="0.312s" dur="0.25s" fill="freeze"/></path><path d="M 218.00 244.75 L 217.19 247.97 L 220.41 252.80 L 223.63 254.41 L 222.82 252.00 L 218.80 247.97 L 219.60 245.56 L 218.80 244.75" fill="none" stroke="#ff6b6b" stroke-width="1.35" stroke-linecap="round" stroke-linejoin="round" stroke-dasharray="40" stroke-dashoffset="0" opacity="1"><animate attributeName="stroke-dashoffset" from="40" to="0" begin="0.320s" dur="0.55s" fill="freeze"/><animate attributeName="opacity" from="0" to="1" begin="0.320s" dur="0.25s" fill="freeze"/></path><path d="M 197.07 227.05 L 200.29 231.07 L 200.29 235.90 L 201.90 237.51 L 200.29 227.85 L 197.88 227.05" fill="none" stroke="#ff6b6b" stroke-width="1.35" stroke-linecap="round" stroke-linejoin="round" stroke-dasharray="40" stroke-dashoffset="0" opacity="1"><animate attributeName="stroke-dashoffset" from="40" to="0" begin="0.328s" dur="0.55s" fill="freeze"/><animate attributeName="opacity" from="0" to="1" begin="0.328s" dur="0.25s" fill="freeze"/></path><path d="M 275.13 432.26 L 275.94 431.46 L 276.74 432.26 L 276.74 441.92 L 275.94 442.72 L 275.13 441.92 L 275.13 433.07" fill="none" stroke="#ff6b6b" stroke-width="1.35" stroke-linecap="round" stroke-linejoin="round" stroke-dasharray="40" stroke-dashoffset="0" opacity="1"><animate attributeName="stroke-dashoffset" from="40" to="0" begin="0.336s" dur="0.55s" fill="freeze"/><animate attributeName="opacity" from="0" to="1" begin="0.336s" dur="0.25s" fill="freeze"/></path><path d="M 199.49 199.69 L 202.70 207.73 L 205.12 208.54 L 202.70 205.32 L 201.10 199.69 L 200.29 199.69" fill="none" stroke="#ff6b6b" stroke-width="1.35" stroke-linecap="round" stroke-linejoin="round" stroke-dasharray="40" stroke-dashoffset="0" opacity="1"><animate attributeName="stroke-dashoffset" from="40" to="0" begin="0.344s" dur="0.55s" fill="freeze"/><animate attributeName="opacity" from="0" to="1" begin="0.344s" dur="0.25s" fill="freeze"/></path><path d="M 135.91 354.20 L 136.71 353.40 L 139.93 359.83 L 139.13 362.25 L 134.30 357.42 L 135.91 355.00" fill="none" stroke="#ff6b6b" stroke-width="1.35" stroke-linecap="round" stroke-linejoin="round" stroke-dasharray="40" stroke-dashoffset="0" opacity="1"><animate attributeName="stroke-dashoffset" from="40" to="0" begin="0.352s" dur="0.55s" fill="freeze"/><animate attributeName="opacity" from="0" to="1" begin="0.352s" dur="0.25s" fill="freeze"/></path><path d="M 218.00 239.92 L 219.60 239.12 L 226.04 243.95 L 224.43 244.75 L 218.00 240.73" fill="none" stroke="#ff6b6b" stroke-width="1.35" stroke-linecap="round" stroke-linejoin="round" stroke-dasharray="40" stroke-dashoffset="0" opacity="1"><animate attributeName="stroke-dashoffset" from="40" to="0" begin="0.360s" dur="0.55s" fill="freeze"/><animate attributeName="opacity" from="0" to="1" begin="0.360s" dur="0.25s" fill="freeze"/></path><path d="M 145.57 298.67 L 146.37 297.87 L 148.79 300.28 L 151.20 304.30 L 150.40 305.91 L 145.57 299.48" fill="none" stroke="#ff6b6b" stroke-width="1.35" stroke-linecap="round" stroke-linejoin="round" stroke-dasharray="40" stroke-dashoffset="0" opacity="1"><animate attributeName="stroke-dashoffset" from="40" to="0" begin="0.368s" dur="0.55s" fill="freeze"/><animate attributeName="opacity" from="0" to="1" begin="0.368s" dur="0.25s" fill="freeze"/></path><path d="M 141.54 292.23 L 142.35 291.43 L 146.37 297.06 L 145.57 298.67 L 141.54 293.04" fill="none" stroke="#ff6b6b" stroke-width="1.35" stroke-linecap="round" stroke-linejoin="round" stroke-dasharray="40" stroke-dashoffset="0" opacity="1"><animate attributeName="stroke-dashoffset" from="40" to="0" begin="0.376s" dur="0.55s" fill="freeze"/><animate attributeName="opacity" from="0" to="1" begin="0.376s" dur="0.25s" fill="freeze"/></path><path d="M 152.00 117.60 L 154.42 116.80 L 156.03 118.40 L 155.22 119.21 L 150.40 119.21 L 149.59 118.40 L 151.20 117.60" fill="none" stroke="#ff6b6b" stroke-width="1.35" stroke-linecap="round" stroke-linejoin="round" stroke-dasharray="40" stroke-dashoffset="0" opacity="1"><animate attributeName="stroke-dashoffset" from="40" to="0" begin="0.384s" dur="0.55s" fill="freeze"/><animate attributeName="opacity" from="0" to="1" begin="0.384s" dur="0.25s" fill="freeze"/></path>
  </g>
</svg>
